
<svg xmlns="http://www.w3.org/2000/svg" version="1.1" xmlns:xlink="http://www.w3.org/1999/xlink" preserveAspectRatio="none" x="0px" y="0px" width="984px" height="1220px" viewBox="0 0 984 1220">
<defs>
<g id="Layer3_0_MEMBER_0_FILL">
<path fill="#C48A31" stroke="none" d="
M 94 440
L 84 440 84 430 74 430 74 420 64 420 64 410 44 410 44 440 54 440 54 450 64 450 64 460 74 460 74 470 84 470 84 480 94 480 94 490 104 490 104 450 94 450 94 440
M 284 440
L 284 410 264 410 264 420 254 420 254 430 244 430 244 440 234 440 234 450 224 450 224 490 234 490 234 480 244 480 244 470 254 470 254 460 264 460 264 450 274 450 274 440 284 440 Z"/>
</g>

<g id="Layer3_0_MEMBER_1_FILL">
<path fill="#162033" stroke="none" d="
M 54 490
L 54 480 44 480 44 760 74 760 74 500 64 500 64 490 54 490
M 94 490
L 94 480 84 480 84 760 160.65 760 160.65 540 104 540 104 490 94 490
M 234 480
L 234 490 224 490 224 540 167.3 540 167.3 760 244 760 244 480 234 480
M 274 480
L 274 490 264 490 264 500 254 500 254 760 284 760 284 480 274 480
M 104 370
L 84 370 84 390 64 390 64 420 74 420 74 430 84 430 84 440 94 440 94 450 104 450 104 420 224 420 224 450 234 450 234 440 244 440 244 430 254 430 254 420 264 420 264 390 244 390 244 370 224 370 224 350 204 350 204 330 124 330 124 350 104 350 104 370 Z"/>
</g>

<g id="Layer3_0_MEMBER_2_FILL">
<path fill="#FFC549" stroke="none" d="
M 167.3 540
L 224 540 224 420 104 420 104 540 160.65 540 160.65 760 167.3 760 167.3 540
M 74 360
L 74 380 54 380 54 400 34 400 34 760 44 760 44 480 54 480 54 490 64 490 64 500 74 500 74 460 64 460 64 450 54 450 54 440 44 440 44 410 64 410 64 390 84 390 84 370 104 370 104 350 124 350 124 330 204 330 204 350 224 350 224 370 244 370 244 390 264 390 264 410 284 410 284 440 274 440 274 450 264 450 264 460 254 460 254 500 264 500 264 490 274 490 274 480 284 480 284 760 294 760 294 400 274 400 274 380 254 380 254 360 234 360 234 340 214 340 214 320 114 320 114 340 94 340 94 360 74 360 Z"/>
</g>

<g id="Layer3_0_MEMBER_3_FILL">
<path fill="#895D20" stroke="none" d="
M 214 440
L 204 440 204 430 124 430 124 440 114 440 114 520 124 520 124 530 204 530 204 520 214 520 214 440 Z"/>
</g>

<g id="Layer3_0_MEMBER_4_FILL">
<path fill="#162033" stroke="none" d="
M 194 510
L 194 450 134 450 134 510 194 510 Z"/>
</g>

<g id="Layer3_0_MEMBER_5_FILL">
<path fill="#CCCCCC" stroke="none" d="
M 154 480
L 144 480 144 500 154 500 154 480
M 164 480
L 164 460 154 460 154 480 164 480
M 174 480
L 164 480 164 500 174 500 174 480
M 174 460
L 174 480 184 480 184 460 174 460 Z"/>
</g>

<g id="Layer3_0_MEMBER_6_FILL">
<path fill="#FFFFFF" stroke="none" d="
M 144 480
L 154 480 154 460 144 460 144 480
M 164 500
L 164 480 154 480 154 500 164 500
M 184 480
L 174 480 174 500 184 500 184 480
M 164 480
L 174 480 174 460 164 460 164 480 Z"/>
</g>

<g id="Layer3_1_MEMBER_0_FILL">
<path fill="#C48A31" stroke="none" d="
M 94 440
L 84 440 84 430 74 430 74 420 64 420 64 410 44 410 44 440 54 440 54 450 64 450 64 460 74 460 74 470 84 470 84 480 94 480 94 490 104 490 104 450 94 450 94 440
M 284 440
L 284 410 264 410 264 420 254 420 254 430 244 430 244 440 234 440 234 450 224 450 224 490 234 490 234 480 244 480 244 470 254 470 254 460 264 460 264 450 274 450 274 440 284 440 Z"/>
</g>

<g id="Layer3_1_MEMBER_1_FILL">
<path fill="#162033" stroke="none" d="
M 54 490
L 54 480 44 480 44 760 74 760 74 500 64 500 64 490 54 490
M 94 490
L 94 480 84 480 84 760 160.65 760 160.65 540 104 540 104 490 94 490
M 234 480
L 234 490 224 490 224 540 167.3 540 167.3 760 244 760 244 480 234 480
M 274 480
L 274 490 264 490 264 500 254 500 254 760 284 760 284 480 274 480
M 104 370
L 84 370 84 390 64 390 64 420 74 420 74 430 84 430 84 440 94 440 94 450 104 450 104 420 224 420 224 450 234 450 234 440 244 440 244 430 254 430 254 420 264 420 264 390 244 390 244 370 224 370 224 350 204 350 204 330 124 330 124 350 104 350 104 370 Z"/>
</g>

<g id="Layer3_1_MEMBER_2_FILL">
<path fill="#FFC549" stroke="none" d="
M 167.3 540
L 224 540 224 420 104 420 104 540 160.65 540 160.65 760 167.3 760 167.3 540
M 74 360
L 74 380 54 380 54 400 34 400 34 760 44 760 44 480 54 480 54 490 64 490 64 500 74 500 74 460 64 460 64 450 54 450 54 440 44 440 44 410 64 410 64 390 84 390 84 370 104 370 104 350 124 350 124 330 204 330 204 350 224 350 224 370 244 370 244 390 264 390 264 410 284 410 284 440 274 440 274 450 264 450 264 460 254 460 254 500 264 500 264 490 274 490 274 480 284 480 284 760 294 760 294 400 274 400 274 380 254 380 254 360 234 360 234 340 214 340 214 320 114 320 114 340 94 340 94 360 74 360 Z"/>
</g>

<g id="Layer3_1_MEMBER_3_FILL">
<path fill="#895D20" stroke="none" d="
M 214 440
L 204 440 204 430 124 430 124 440 114 440 114 520 124 520 124 530 204 530 204 520 214 520 214 440 Z"/>
</g>

<g id="Layer3_1_MEMBER_4_FILL">
<path fill="#162033" stroke="none" d="
M 194 510
L 194 450 134 450 134 510 194 510 Z"/>
</g>

<g id="Layer3_1_MEMBER_5_FILL">
<path fill="#CCCCCC" stroke="none" d="
M 154 480
L 144 480 144 500 154 500 154 480
M 174 460
L 174 480 184 480 184 460 174 460
M 174 480
L 164 480 164 500 174 500 174 480
M 164 480
L 164 460 154 460 154 480 164 480 Z"/>
</g>

<g id="Layer3_1_MEMBER_6_FILL">
<path fill="#FFFFFF" stroke="none" d="
M 144 480
L 154 480 154 460 144 460 144 480
M 164 500
L 164 480 154 480 154 500 164 500
M 164 460
L 164 480 174 480 174 460 164 460
M 184 480
L 174 480 174 500 184 500 184 480 Z"/>
</g>

<g id="Layer3_2_FILL">
<path fill="#000000" stroke="none" d="
M 719.5 360
L 719.5 380 699.5 380 699.5 400 679.5 400 679.5 760 719.5 760 719.5 470 729.5 470 729.5 760 889.5 760 889.5 470 899.5 470 899.5 760 939.5 760 939.5 400 919.5 400 919.5 380 899.5 380 899.5 360 879.5 360 879.5 340 859.5 340 859.5 320 759.5 320 759.5 340 739.5 340 739.5 360 719.5 360 Z"/>
</g>

<g id="Layer2_0_MEMBER_0_FILL">
<path fill="#895D20" stroke="none" d="
M 248 276
L 220 276 220 304 248 304 248 276
M 220 220
L 192 220 192 248 220 248 220 220
M 192 276
L 164 276 164 304 192 304 192 276
M 136 276
L 108 276 108 304 136 304 136 276
M 136 220
L 136 248 164 248 164 220 136 220
M 108 248
L 108 220 80 220 80 248 108 248
M 108 164
L 108 192 136 192 136 164 108 164
M 220 164
L 220 192 248 192 248 164 220 164
M 192 164
L 164 164 164 192 192 192 192 164 Z"/>
</g>

<g id="Layer2_0_MEMBER_1_FILL">
<path fill="#C68A2D" stroke="none" d="
M 164 192
L 136 192 136 220 164 220 164 192
M 220 332
L 220 304 192 304 192 332 220 332
M 192 248
L 164 248 164 276 192 276 192 248
M 248 276
L 248 248 220 248 220 276 248 276
M 136 304
L 136 332 164 332 164 304 136 304
M 80 304
L 80 332 108 332 108 304 80 304
M 108 248
L 108 276 136 276 136 248 108 248
M 108 192
L 80 192 80 220 108 220 108 192
M 220 192
L 192 192 192 220 220 220 220 192 Z"/>
</g>

<g id="Layer2_0_MEMBER_2_FILL">
<path fill="#FFC549" stroke="none" d="
M 220 276
L 192 276 192 304 220 304 220 276
M 192 220
L 164 220 164 248 192 248 192 220
M 248 248
L 248 220 220 220 220 248 248 248
M 108 304
L 108 276 80 276 80 304 108 304
M 136 276
L 136 304 164 304 164 276 136 276
M 136 220
L 108 220 108 248 136 248 136 220
M 80 164
L 80 192 108 192 108 164 80 164
M 192 164
L 192 192 220 192 220 164 192 164
M 164 192
L 164 164 136 164 136 192 164 192 Z"/>
</g>

<g id="Layer2_0_MEMBER_3_FILL">
<path fill="#895D20" stroke="none" d="
M 192 304
L 164 304 164 332 192 332 192 304
M 220 304
L 220 332 248 332 248 304 220 304
M 192 248
L 192 276 220 276 220 248 192 248
M 136 332
L 136 304 108 304 108 332 136 332
M 136 248
L 136 276 164 276 164 248 136 248
M 108 276
L 108 248 80 248 80 276 108 276
M 136 192
L 108 192 108 220 136 220 136 192
M 248 192
L 220 192 220 220 248 220 248 192
M 192 192
L 164 192 164 220 192 220 192 192 Z"/>
</g>

<g id="Layer2_0_MEMBER_4_FILL">
<path fill="#162033" stroke="none" d="
M 276 360
L 276 136 52 136 52 360 276 360
M 80 164
L 248 164 248 332 80 332 80 164 Z"/>
</g>

<g id="Layer2_1_MEMBER_0_FILL">
<path fill="#895D20" stroke="none" d="
M 248 276
L 220 276 220 304 248 304 248 276
M 220 220
L 192 220 192 248 220 248 220 220
M 192 276
L 164 276 164 304 192 304 192 276
M 108 248
L 108 220 80 220 80 248 108 248
M 136 220
L 136 248 164 248 164 220 136 220
M 136 276
L 108 276 108 304 136 304 136 276
M 108 164
L 108 192 136 192 136 164 108 164
M 220 164
L 220 192 248 192 248 164 220 164
M 192 164
L 164 164 164 192 192 192 192 164 Z"/>
</g>

<g id="Layer2_1_MEMBER_1_FILL">
<path fill="#C68A2D" stroke="none" d="
M 164 192
L 136 192 136 220 164 220 164 192
M 220 332
L 220 304 192 304 192 332 220 332
M 192 248
L 164 248 164 276 192 276 192 248
M 248 276
L 248 248 220 248 220 276 248 276
M 136 304
L 136 332 164 332 164 304 136 304
M 80 304
L 80 332 108 332 108 304 80 304
M 108 248
L 108 276 136 276 136 248 108 248
M 108 192
L 80 192 80 220 108 220 108 192
M 220 192
L 192 192 192 220 220 220 220 192 Z"/>
</g>

<g id="Layer2_1_MEMBER_2_FILL">
<path fill="#FFC549" stroke="none" d="
M 220 276
L 192 276 192 304 220 304 220 276
M 192 220
L 164 220 164 248 192 248 192 220
M 248 248
L 248 220 220 220 220 248 248 248
M 136 276
L 136 304 164 304 164 276 136 276
M 108 304
L 108 276 80 276 80 304 108 304
M 136 220
L 108 220 108 248 136 248 136 220
M 80 164
L 80 192 108 192 108 164 80 164
M 164 192
L 164 164 136 164 136 192 164 192
M 192 164
L 192 192 220 192 220 164 192 164 Z"/>
</g>

<g id="Layer2_1_MEMBER_3_FILL">
<path fill="#895D20" stroke="none" d="
M 192 304
L 164 304 164 332 192 332 192 304
M 220 304
L 220 332 248 332 248 304 220 304
M 192 248
L 192 276 220 276 220 248 192 248
M 136 332
L 136 304 108 304 108 332 136 332
M 136 248
L 136 276 164 276 164 248 136 248
M 108 276
L 108 248 80 248 80 276 108 276
M 136 192
L 108 192 108 220 136 220 136 192
M 248 192
L 220 192 220 220 248 220 248 192
M 192 192
L 164 192 164 220 192 220 192 192 Z"/>
</g>

<g id="Layer2_1_MEMBER_4_FILL">
<path fill="#162033" stroke="none" d="
M 276 360
L 276 136 52 136 52 360 276 360
M 80 164
L 248 164 248 332 80 332 80 164 Z"/>
</g>

<g id="Layer2_2_FILL">
<path fill="#000000" stroke="none" d="
M 708 360
L 932 360 932 136 708 136 708 360 Z"/>
</g>
</defs>

<g transform="matrix( 1, 0, 0, 1, 0,0) ">
<use xlink:href="#Layer3_0_MEMBER_0_FILL"/>
</g>

<g transform="matrix( 1, 0, 0, 1, 0,0) ">
<use xlink:href="#Layer3_0_MEMBER_1_FILL"/>
</g>

<g transform="matrix( 1, 0, 0, 1, 0,0) ">
<use xlink:href="#Layer3_0_MEMBER_2_FILL"/>
</g>

<g transform="matrix( 1, 0, 0, 1, 0,0) ">
<use xlink:href="#Layer3_0_MEMBER_3_FILL"/>
</g>

<g transform="matrix( 1, 0, 0, 1, 0,0) ">
<use xlink:href="#Layer3_0_MEMBER_4_FILL"/>
</g>

<g transform="matrix( 1, 0, 0, 1, 0,0) ">
<use xlink:href="#Layer3_0_MEMBER_5_FILL"/>
</g>

<g transform="matrix( 1, 0, 0, 1, 0,0) ">
<use xlink:href="#Layer3_0_MEMBER_6_FILL"/>
</g>

<g transform="matrix( 1, 0, 0, 1, 328,0) ">
<use xlink:href="#Layer3_1_MEMBER_0_FILL"/>
</g>

<g transform="matrix( 1, 0, 0, 1, 328,0) ">
<use xlink:href="#Layer3_1_MEMBER_1_FILL"/>
</g>

<g transform="matrix( 1, 0, 0, 1, 328,0) ">
<use xlink:href="#Layer3_1_MEMBER_2_FILL"/>
</g>

<g transform="matrix( 1, 0, 0, 1, 328,0) ">
<use xlink:href="#Layer3_1_MEMBER_3_FILL"/>
</g>

<g transform="matrix( 1, 0, 0, 1, 328,0) ">
<use xlink:href="#Layer3_1_MEMBER_4_FILL"/>
</g>

<g transform="matrix( 1, 0, 0, 1, 328,0) ">
<use xlink:href="#Layer3_1_MEMBER_5_FILL"/>
</g>

<g transform="matrix( 1, 0, 0, 1, 328,0) ">
<use xlink:href="#Layer3_1_MEMBER_6_FILL"/>
</g>

<g transform="matrix( 1, 0, 0, 1, 10.5,0) ">
<use xlink:href="#Layer3_2_FILL"/>
</g>

<g transform="matrix( 1, 0, 0, 1, 0,0) ">
<use xlink:href="#Layer2_0_MEMBER_0_FILL"/>
</g>

<g transform="matrix( 1, 0, 0, 1, 0,0) ">
<use xlink:href="#Layer2_0_MEMBER_1_FILL"/>
</g>

<g transform="matrix( 1, 0, 0, 1, 0,0) ">
<use xlink:href="#Layer2_0_MEMBER_2_FILL"/>
</g>

<g transform="matrix( 1, 0, 0, 1, 0,0) ">
<use xlink:href="#Layer2_0_MEMBER_3_FILL"/>
</g>

<g transform="matrix( 1, 0, 0, 1, 0,0) ">
<use xlink:href="#Layer2_0_MEMBER_4_FILL"/>
</g>

<g transform="matrix( 1, 0, 0, 1, 0,760) ">
<use xlink:href="#Layer2_1_MEMBER_0_FILL"/>
</g>

<g transform="matrix( 1, 0, 0, 1, 0,760) ">
<use xlink:href="#Layer2_1_MEMBER_1_FILL"/>
</g>

<g transform="matrix( 1, 0, 0, 1, 0,760) ">
<use xlink:href="#Layer2_1_MEMBER_2_FILL"/>
</g>

<g transform="matrix( 1, 0, 0, 1, 0,760) ">
<use xlink:href="#Layer2_1_MEMBER_3_FILL"/>
</g>

<g transform="matrix( 1, 0, 0, 1, 0,760) ">
<use xlink:href="#Layer2_1_MEMBER_4_FILL"/>
</g>

<g transform="matrix( 1, 0, 0, 1, 0,0) ">
<use xlink:href="#Layer2_2_FILL"/>
</g>
</svg>
